<mxfile host="Electron" modified="2023-04-08T17:00:16.854Z" agent="Mozilla/5.0 (Windows NT 10.0; Win64; x64) AppleWebKit/537.36 (KHTML, like Gecko) draw.io/21.1.2 Chrome/106.0.5249.199 Electron/21.4.3 Safari/537.36" etag="TcYuqUxB7Vpm-7oqEd5b" version="21.1.2" type="device">
  <diagram name="Страница 1" id="8ubSKCM-UxtfIr--buag">
    <mxGraphModel dx="1098" dy="828" grid="1" gridSize="10" guides="1" tooltips="1" connect="1" arrows="1" fold="1" page="1" pageScale="1" pageWidth="827" pageHeight="1169" math="1" shadow="0">
      <root>
        <mxCell id="0" />
        <mxCell id="1" parent="0" />
        <mxCell id="hp_jy0hZayrmv4ZNBGdV-1" value="&lt;font style=&quot;font-size: 20px;&quot;&gt;$$S_0$$&lt;/font&gt;" style="ellipse;whiteSpace=wrap;html=1;" vertex="1" parent="1">
          <mxGeometry x="60" y="290" width="80" height="80" as="geometry" />
        </mxCell>
        <mxCell id="hp_jy0hZayrmv4ZNBGdV-2" value="&lt;font style=&quot;font-size: 20px;&quot;&gt;$$S_1$$&lt;/font&gt;" style="ellipse;whiteSpace=wrap;html=1;" vertex="1" parent="1">
          <mxGeometry x="260" y="290" width="80" height="80" as="geometry" />
        </mxCell>
        <mxCell id="hp_jy0hZayrmv4ZNBGdV-3" value="&lt;font style=&quot;font-size: 20px;&quot;&gt;$$S_2$$&lt;/font&gt;" style="ellipse;whiteSpace=wrap;html=1;" vertex="1" parent="1">
          <mxGeometry x="460" y="290" width="80" height="80" as="geometry" />
        </mxCell>
        <mxCell id="hp_jy0hZayrmv4ZNBGdV-4" value="&lt;font style=&quot;font-size: 20px;&quot;&gt;$$S_3$$&lt;/font&gt;" style="ellipse;whiteSpace=wrap;html=1;" vertex="1" parent="1">
          <mxGeometry x="660" y="290" width="80" height="80" as="geometry" />
        </mxCell>
        <mxCell id="hp_jy0hZayrmv4ZNBGdV-5" value="&lt;font style=&quot;font-size: 20px;&quot;&gt;$$S_4$$&lt;/font&gt;" style="ellipse;whiteSpace=wrap;html=1;" vertex="1" parent="1">
          <mxGeometry x="860" y="290" width="80" height="80" as="geometry" />
        </mxCell>
        <mxCell id="hp_jy0hZayrmv4ZNBGdV-6" value="" style="endArrow=classic;html=1;rounded=0;exitX=1;exitY=0.313;exitDx=0;exitDy=0;exitPerimeter=0;entryX=0.063;entryY=0.313;entryDx=0;entryDy=0;entryPerimeter=0;" edge="1" parent="1" source="hp_jy0hZayrmv4ZNBGdV-1" target="hp_jy0hZayrmv4ZNBGdV-2">
          <mxGeometry width="50" height="50" relative="1" as="geometry">
            <mxPoint x="200" y="560" as="sourcePoint" />
            <mxPoint x="250" y="510" as="targetPoint" />
          </mxGeometry>
        </mxCell>
        <mxCell id="hp_jy0hZayrmv4ZNBGdV-8" value="$$4\lambda$$" style="edgeLabel;html=1;align=center;verticalAlign=middle;resizable=0;points=[];labelBackgroundColor=none;fontSize=16;" vertex="1" connectable="0" parent="hp_jy0hZayrmv4ZNBGdV-6">
          <mxGeometry x="0.2636" y="-5" relative="1" as="geometry">
            <mxPoint x="-19" y="-20" as="offset" />
          </mxGeometry>
        </mxCell>
        <mxCell id="hp_jy0hZayrmv4ZNBGdV-7" value="" style="endArrow=classic;html=1;rounded=0;exitX=-0.012;exitY=0.688;exitDx=0;exitDy=0;exitPerimeter=0;entryX=0.95;entryY=0.7;entryDx=0;entryDy=0;entryPerimeter=0;" edge="1" parent="1" source="hp_jy0hZayrmv4ZNBGdV-2" target="hp_jy0hZayrmv4ZNBGdV-1">
          <mxGeometry width="50" height="50" relative="1" as="geometry">
            <mxPoint x="220" y="510" as="sourcePoint" />
            <mxPoint x="270" y="460" as="targetPoint" />
          </mxGeometry>
        </mxCell>
        <mxCell id="hp_jy0hZayrmv4ZNBGdV-9" value="$$\mu_{общ}$$" style="edgeLabel;html=1;align=center;verticalAlign=middle;resizable=0;points=[];labelBackgroundColor=none;fontSize=16;" vertex="1" connectable="0" parent="hp_jy0hZayrmv4ZNBGdV-7">
          <mxGeometry x="-0.2838" y="3" relative="1" as="geometry">
            <mxPoint x="-15" y="12" as="offset" />
          </mxGeometry>
        </mxCell>
        <mxCell id="hp_jy0hZayrmv4ZNBGdV-15" value="" style="endArrow=classic;html=1;rounded=0;exitX=1;exitY=0.313;exitDx=0;exitDy=0;exitPerimeter=0;entryX=0.063;entryY=0.313;entryDx=0;entryDy=0;entryPerimeter=0;" edge="1" parent="1">
          <mxGeometry width="50" height="50" relative="1" as="geometry">
            <mxPoint x="340" y="310" as="sourcePoint" />
            <mxPoint x="465" y="310" as="targetPoint" />
          </mxGeometry>
        </mxCell>
        <mxCell id="hp_jy0hZayrmv4ZNBGdV-16" value="$$3\lambda$$" style="edgeLabel;html=1;align=center;verticalAlign=middle;resizable=0;points=[];labelBackgroundColor=none;fontSize=16;" vertex="1" connectable="0" parent="hp_jy0hZayrmv4ZNBGdV-15">
          <mxGeometry x="0.2636" y="-5" relative="1" as="geometry">
            <mxPoint x="-19" y="-20" as="offset" />
          </mxGeometry>
        </mxCell>
        <mxCell id="hp_jy0hZayrmv4ZNBGdV-17" value="" style="endArrow=classic;html=1;rounded=0;exitX=-0.012;exitY=0.688;exitDx=0;exitDy=0;exitPerimeter=0;entryX=0.95;entryY=0.7;entryDx=0;entryDy=0;entryPerimeter=0;" edge="1" parent="1">
          <mxGeometry width="50" height="50" relative="1" as="geometry">
            <mxPoint x="463" y="340" as="sourcePoint" />
            <mxPoint x="340" y="341" as="targetPoint" />
          </mxGeometry>
        </mxCell>
        <mxCell id="hp_jy0hZayrmv4ZNBGdV-18" value="$$\mu_{общ}$$" style="edgeLabel;html=1;align=center;verticalAlign=middle;resizable=0;points=[];labelBackgroundColor=none;fontSize=16;" vertex="1" connectable="0" parent="hp_jy0hZayrmv4ZNBGdV-17">
          <mxGeometry x="-0.2838" y="3" relative="1" as="geometry">
            <mxPoint x="-15" y="12" as="offset" />
          </mxGeometry>
        </mxCell>
        <mxCell id="hp_jy0hZayrmv4ZNBGdV-20" value="" style="endArrow=classic;html=1;rounded=0;exitX=1;exitY=0.313;exitDx=0;exitDy=0;exitPerimeter=0;entryX=0.063;entryY=0.313;entryDx=0;entryDy=0;entryPerimeter=0;" edge="1" parent="1">
          <mxGeometry width="50" height="50" relative="1" as="geometry">
            <mxPoint x="540" y="314.5" as="sourcePoint" />
            <mxPoint x="665" y="314.5" as="targetPoint" />
          </mxGeometry>
        </mxCell>
        <mxCell id="hp_jy0hZayrmv4ZNBGdV-21" value="$$2\lambda$$" style="edgeLabel;html=1;align=center;verticalAlign=middle;resizable=0;points=[];labelBackgroundColor=none;fontSize=16;" vertex="1" connectable="0" parent="hp_jy0hZayrmv4ZNBGdV-20">
          <mxGeometry x="0.2636" y="-5" relative="1" as="geometry">
            <mxPoint x="-19" y="-20" as="offset" />
          </mxGeometry>
        </mxCell>
        <mxCell id="hp_jy0hZayrmv4ZNBGdV-22" value="" style="endArrow=classic;html=1;rounded=0;exitX=-0.012;exitY=0.688;exitDx=0;exitDy=0;exitPerimeter=0;entryX=0.95;entryY=0.7;entryDx=0;entryDy=0;entryPerimeter=0;" edge="1" parent="1">
          <mxGeometry width="50" height="50" relative="1" as="geometry">
            <mxPoint x="660" y="344.5" as="sourcePoint" />
            <mxPoint x="537" y="345.5" as="targetPoint" />
          </mxGeometry>
        </mxCell>
        <mxCell id="hp_jy0hZayrmv4ZNBGdV-23" value="$$\mu_{общ}$$" style="edgeLabel;html=1;align=center;verticalAlign=middle;resizable=0;points=[];labelBackgroundColor=none;fontSize=16;" vertex="1" connectable="0" parent="hp_jy0hZayrmv4ZNBGdV-22">
          <mxGeometry x="-0.2838" y="3" relative="1" as="geometry">
            <mxPoint x="-15" y="12" as="offset" />
          </mxGeometry>
        </mxCell>
        <mxCell id="hp_jy0hZayrmv4ZNBGdV-24" value="" style="endArrow=classic;html=1;rounded=0;exitX=0.975;exitY=0.288;exitDx=0;exitDy=0;exitPerimeter=0;" edge="1" parent="1" source="hp_jy0hZayrmv4ZNBGdV-4">
          <mxGeometry width="50" height="50" relative="1" as="geometry">
            <mxPoint x="740" y="314.5" as="sourcePoint" />
            <mxPoint x="865" y="315" as="targetPoint" />
          </mxGeometry>
        </mxCell>
        <mxCell id="hp_jy0hZayrmv4ZNBGdV-25" value="$$\lambda$$" style="edgeLabel;html=1;align=center;verticalAlign=middle;resizable=0;points=[];labelBackgroundColor=none;fontSize=16;" vertex="1" connectable="0" parent="hp_jy0hZayrmv4ZNBGdV-24">
          <mxGeometry x="0.2636" y="-5" relative="1" as="geometry">
            <mxPoint x="-19" y="-20" as="offset" />
          </mxGeometry>
        </mxCell>
        <mxCell id="hp_jy0hZayrmv4ZNBGdV-26" value="" style="endArrow=classic;html=1;rounded=0;exitX=0.038;exitY=0.713;exitDx=0;exitDy=0;exitPerimeter=0;entryX=0.988;entryY=0.7;entryDx=0;entryDy=0;entryPerimeter=0;" edge="1" parent="1" source="hp_jy0hZayrmv4ZNBGdV-5" target="hp_jy0hZayrmv4ZNBGdV-4">
          <mxGeometry width="50" height="50" relative="1" as="geometry">
            <mxPoint x="863" y="344.5" as="sourcePoint" />
            <mxPoint x="740" y="345.5" as="targetPoint" />
          </mxGeometry>
        </mxCell>
        <mxCell id="hp_jy0hZayrmv4ZNBGdV-27" value="$$\mu_{общ}$$" style="edgeLabel;html=1;align=center;verticalAlign=middle;resizable=0;points=[];labelBackgroundColor=none;fontSize=16;" vertex="1" connectable="0" parent="hp_jy0hZayrmv4ZNBGdV-26">
          <mxGeometry x="-0.2838" y="3" relative="1" as="geometry">
            <mxPoint x="-15" y="12" as="offset" />
          </mxGeometry>
        </mxCell>
      </root>
    </mxGraphModel>
  </diagram>
</mxfile>
